<svg width="18" height="17" viewBox="0 0 18 17" fill="none" xmlns="http://www.w3.org/2000/svg">
<path d="M3.73332 4.09523L2.21665 9.02357L8.99999 14.2019L15.7833 9.02357L14.2667 4.09523L12.8692 7.1669H5.12999L3.73415 4.09523H3.73332ZM11.7975 5.50023L14.2042 0.205233C14.2321 0.143505 14.2781 0.0917506 14.3362 0.0568651C14.3943 0.0219796 14.4616 0.00561916 14.5292 0.00996356C14.5968 0.014308 14.6615 0.0391509 14.7147 0.0811826C14.7678 0.123214 14.8069 0.180439 14.8267 0.245233L17.6325 9.36607C17.6575 9.44739 17.657 9.53443 17.6311 9.61547C17.6052 9.69652 17.555 9.76768 17.4875 9.8194L8.99999 16.2986L0.51332 9.8194C0.445755 9.76768 0.395643 9.69652 0.369721 9.61547C0.343799 9.53443 0.34331 9.44739 0.36832 9.36607L3.17415 0.245233C3.19394 0.180439 3.23301 0.123214 3.28615 0.0811826C3.33928 0.0391509 3.40396 0.014308 3.47157 0.00996356C3.53918 0.00561916 3.60651 0.0219796 3.66459 0.0568651C3.72266 0.0917506 3.76873 0.143505 3.79665 0.205233L6.20332 5.50023H11.7967H11.7975Z" fill="#7B8794"/>
</svg>
