<svg width="17" height="18" viewBox="0 0 17 18" fill="none" xmlns="http://www.w3.org/2000/svg">
<path d="M1.55332 5.25817C2.24666 3.87754 3.3103 2.71693 4.62535 1.90606C5.9404 1.09519 7.45504 0.666018 8.99999 0.666504C11.2458 0.666504 13.1325 1.4915 14.575 2.83734L12.1858 5.22734C11.3217 4.4015 10.2233 3.98067 8.99999 3.98067C6.82916 3.98067 4.99166 5.44734 4.33749 7.41651C4.17082 7.91651 4.07582 8.44984 4.07582 8.99984C4.07582 9.54984 4.17082 10.0832 4.33749 10.5832C4.99249 12.5532 6.82916 14.019 8.99999 14.019C10.1208 14.019 11.075 13.7232 11.8217 13.2232C12.2545 12.9382 12.6251 12.5684 12.911 12.1361C13.1969 11.7038 13.3922 11.2181 13.485 10.7082H8.99999V7.48484H16.8483C16.9467 8.02984 17 8.59817 17 9.18901C17 11.7273 16.0917 13.864 14.515 15.314C13.1367 16.5873 11.25 17.3332 8.99999 17.3332C7.90552 17.3336 6.82169 17.1184 5.81044 16.6997C4.7992 16.2811 3.88037 15.6673 3.10646 14.8934C2.33255 14.1195 1.71874 13.2006 1.3001 12.1894C0.881468 11.1781 0.666219 10.0943 0.666657 8.99984C0.666657 7.65484 0.988324 6.38317 1.55332 5.25817Z" fill="#7B8794"/>
</svg>
