<svg width="1440" height="1024" viewBox="0 0 1440 1024" fill="none" xmlns="http://www.w3.org/2000/svg">
<mask id="mask0" mask-type="alpha" maskUnits="userSpaceOnUse" x="0" y="0" width="1440" height="1024">
<rect width="1440" height="1024" fill="#D7DDFF"/>
</mask>
<g mask="url(#mask0)">
<path opacity="0.5" fill-rule="evenodd" clip-rule="evenodd" d="M1518.82 286.676C1459.76 368.215 1378.63 429.712 1286.19 464.545C1243.02 438.997 1196.1 419.872 1146.86 408.02C1048.49 384.341 945.358 390.767 850.649 426.457C836.14 417.87 822 408.526 808.291 398.44L1108.11 -15.5L1518.82 286.676ZM1028.02 905.995L613.228 611.057C671.841 527.323 754.015 463.222 849.138 427.029C849.641 426.837 850.145 426.647 850.649 426.457C951.421 486.092 1070.04 509.192 1186.52 490.87C1220.8 485.478 1254.18 476.611 1286.19 464.545C1329.73 490.31 1369.47 522.609 1403.93 560.573C1470.54 633.968 1514.49 725.265 1530.49 823.291C1490.05 807.837 1447.71 797.605 1404.48 792.928C1333.61 785.26 1261.93 792.695 1194.1 814.749C1133.5 834.45 1077.18 865.423 1028.02 905.995ZM1028.02 905.995L1028.73 906.5L1531.86 832.184C1531.43 829.214 1530.97 826.249 1530.49 823.291C1556.35 833.173 1581.43 845.192 1605.48 859.258L1350.21 1302.5L886.063 1093.15C915.179 1027.58 957.648 968.91 1010.71 920.948C1016.38 915.828 1022.15 910.843 1028.02 905.995Z" fill="#8C99FF"/>
<path opacity="0.5" fill-rule="evenodd" clip-rule="evenodd" d="M632.728 119.701C520.018 101.971 418.664 40.7835 349.97 -50.7682C285.713 -60.5359 219.856 -57.8498 156.005 -42.48C57.1105 -18.6749 -32.4322 34.4633 -101.061 110.073C-169.69 185.683 -214.254 280.292 -228.997 381.684L207.138 446.105L264.502 346.5L364.621 391.658L689.636 160.557C680.583 147.624 670.967 135.159 660.828 123.192C651.455 122.336 642.083 121.173 632.728 119.701ZM543.297 775.106C564.621 761.016 584.916 745.296 603.994 728.052C657.061 680.09 699.53 621.42 728.646 555.848L364.621 391.658L274.13 456L207.138 446.105L9.22889 789.742C70.8749 825.805 139.355 848.404 210.227 856.072C235.053 858.758 259.978 859.591 284.803 858.591L492.882 705.5L543.297 775.106ZM543.297 775.106C505.311 800.205 464.061 820.125 420.613 834.251C376.54 848.58 330.845 856.737 284.803 858.591L82.1707 1007.68C161.688 1117.46 281.219 1190.91 414.469 1211.87C547.719 1232.83 683.773 1199.58 792.7 1119.44L543.297 775.106ZM453.726 -23.4711C534.156 7.13123 605.329 57.6869 660.828 123.192C766.846 132.882 873.136 103.452 959.634 39.8055L700.5 -318L345.522 -56.8023C346.989 -54.7766 348.471 -52.7652 349.97 -50.7682C385.236 -45.4076 420.02 -36.2959 453.726 -23.4711Z" fill="#8C99FF"/>
<path d="M1130.3 -1.18972C1138.85 -4.69856 1142.9 -14.379 1139.34 -22.8115C1135.78 -31.2441 1125.96 -35.2355 1117.41 -31.7267L1046.11 -2.48023C1042.83 -1.13545 1039.99 1.07238 1037.9 3.90167C1031.61 12.4197 1033.51 24.3553 1042.15 30.5605L1093.38 67.3496C1100.86 72.7275 1111.36 71.1026 1116.81 63.7203C1122.27 56.338 1120.62 45.9938 1113.13 40.6159L1082.32 18.4898L1130.3 -1.18972Z" fill="#5A6AFF"/>
<path d="M1373.29 484.032L1325.32 503.711C1316.76 507.22 1312.72 516.9 1316.27 525.333C1319.83 533.766 1329.65 537.757 1338.21 534.248L1409.5 505.002C1412.78 503.657 1415.62 501.449 1417.71 498.62C1424 490.102 1422.1 478.166 1413.46 471.961L1362.24 435.172C1354.75 429.794 1344.26 431.419 1338.8 438.801C1333.35 446.184 1334.99 456.528 1342.48 461.906L1373.29 484.032Z" fill="#96C8EB"/>
<path d="M875.308 167.032L827.335 186.711C818.781 190.22 814.732 199.9 818.292 208.333C821.851 216.766 831.67 220.757 840.224 217.248L911.519 188.002C914.797 186.657 917.637 184.449 919.727 181.62C926.022 173.102 924.12 161.166 915.479 154.961L864.254 118.172C856.765 112.794 846.273 114.419 840.818 121.801C835.363 129.184 837.011 139.528 844.499 144.906L875.308 167.032Z" fill="#FFB81E"/>
<path d="M1165.02 675.81C1173.58 672.301 1177.62 662.621 1174.07 654.188C1170.51 645.756 1160.69 641.764 1152.13 645.273L1080.84 674.52C1077.56 675.865 1074.72 678.072 1072.63 680.902C1066.34 689.42 1068.24 701.355 1076.88 707.561L1128.1 744.35C1135.59 749.727 1146.08 748.103 1151.54 740.72C1156.99 733.338 1155.35 722.994 1147.86 717.616L1117.05 695.49L1165.02 675.81Z" fill="#5A6AFF"/>
<path d="M778.308 923.032L730.335 942.711C721.781 946.22 717.732 955.9 721.292 964.333C724.851 972.766 734.67 976.757 743.224 973.248L814.519 944.002C817.797 942.657 820.637 940.449 822.727 937.62C829.022 929.102 827.12 917.166 818.479 910.961L767.254 874.172C759.765 868.794 749.273 870.419 743.818 877.801C738.363 885.184 740.011 895.528 747.499 900.906L778.308 923.032Z" fill="#FE585A"/>
<path d="M836.037 583.096L794.274 691.773C790.662 701.401 795.561 712.126 805.217 715.728C814.873 719.33 825.629 714.445 829.242 704.818L871.005 596.14C874.617 586.512 869.718 575.787 860.062 572.185C850.406 568.583 839.65 573.468 836.037 583.096Z" fill="#5A6AFF"/>
<path d="M1322.34 839.519L1280.58 948.197C1276.97 957.824 1281.87 968.549 1291.52 972.152C1301.18 975.754 1311.94 970.869 1315.55 961.241L1357.31 852.563C1360.92 842.936 1356.03 832.211 1346.37 828.609C1336.71 825.006 1325.96 829.891 1322.34 839.519Z" fill="#5A6AFF"/>
<path d="M1077.36 975.058L1035.6 1081.86C1031.99 1091.32 1036.88 1101.86 1046.54 1105.4C1056.2 1108.94 1066.95 1104.14 1070.57 1094.68L1112.33 987.877C1115.94 978.415 1111.04 967.875 1101.39 964.335C1091.73 960.795 1080.97 965.596 1077.36 975.058Z" fill="#5A6AFF"/>
<path d="M1332.27 68.5195L1290.5 177.197C1286.89 186.825 1291.79 197.55 1301.45 201.152C1311.1 204.754 1321.86 199.869 1325.47 190.242L1367.23 81.5639C1370.85 71.9361 1365.95 61.2111 1356.29 57.609C1346.64 54.0069 1335.88 58.8917 1332.27 68.5195Z" fill="#5A6AFF"/>
<path d="M1091.03 310.887L1049.27 417.691C1045.66 427.153 1050.56 437.693 1060.21 441.233C1069.87 444.773 1080.62 439.972 1084.24 430.51L1126 323.707C1129.61 314.245 1124.71 303.705 1115.06 300.165C1105.4 296.625 1094.65 301.425 1091.03 310.887Z" fill="#5A6AFF"/>
<path d="M267.295 127.81C275.849 124.301 279.897 114.621 276.338 106.188C272.779 97.7559 262.96 93.7645 254.406 97.2733L183.111 126.52C179.833 127.865 176.993 130.072 174.903 132.902C168.608 141.42 170.51 153.355 179.15 159.561L230.376 196.35C237.865 201.727 248.357 200.103 253.812 192.72C259.267 185.338 257.619 174.994 250.131 169.616L219.322 147.49L267.295 127.81Z" fill="#5A6AFF"/>
<path d="M510.291 613.032L462.318 632.711C453.764 636.22 449.715 645.9 453.275 654.333C456.834 662.766 466.653 666.757 475.207 663.248L546.502 634.002C549.78 632.657 552.62 630.449 554.71 627.62C561.005 619.102 559.103 607.166 550.462 600.961L499.237 564.172C491.748 558.794 481.256 560.419 475.801 567.801C470.345 575.184 471.994 585.528 479.482 590.906L510.291 613.032Z" fill="#96C8EB"/>
<path d="M21.308 331.032L-26.6652 350.711C-35.2188 354.22 -39.2675 363.9 -35.7083 372.333C-32.1491 380.766 -22.3297 384.757 -13.7761 381.248L57.5186 352.002C60.7968 350.657 63.6366 348.449 65.7273 345.62C72.0216 337.102 70.1198 325.166 61.4795 318.961L10.2536 282.172C2.76536 276.794 -7.72729 278.419 -13.1824 285.801C-18.6374 293.184 -16.9892 303.528 -9.50093 308.906L21.308 331.032Z" fill="#FFB81E"/>
<path d="M302.022 804.81C310.576 801.301 314.625 791.621 311.065 783.188C307.506 774.756 297.687 770.764 289.133 774.273L217.838 803.52C214.56 804.865 211.72 807.072 209.63 809.902C203.335 818.42 205.237 830.355 213.878 836.561L265.103 873.35C272.592 878.727 283.084 877.103 288.539 869.72C293.994 862.338 292.346 851.994 284.858 846.616L254.049 824.49L302.022 804.81Z" fill="#5A6AFF"/>
<path d="M3.0375 733.096L-38.7255 841.773C-42.3382 851.401 -37.4391 862.126 -27.7831 865.728C-18.1272 869.33 -7.37089 864.445 -3.75826 854.818L38.0048 746.14C41.6174 736.512 36.7183 725.787 27.0624 722.185C17.4064 718.583 6.65013 723.468 3.0375 733.096Z" fill="#5A6AFF"/>
<path d="M459.345 968.519L417.582 1077.2C413.969 1086.82 418.868 1097.55 428.524 1101.15C438.18 1104.75 448.936 1099.87 452.549 1090.24L494.312 981.563C497.925 971.936 493.026 961.211 483.37 957.609C473.714 954.006 462.957 958.891 459.345 968.519Z" fill="#5A6AFF"/>
<path d="M469.267 197.52L427.504 306.197C423.891 315.825 428.79 326.55 438.446 330.152C448.102 333.754 458.858 328.869 462.471 319.242L504.234 210.564C507.847 200.936 502.947 190.211 493.292 186.609C483.636 183.007 472.879 187.892 469.267 197.52Z" fill="#5A6AFF"/>
<path d="M228.033 439.887L186.27 546.691C182.657 556.153 187.556 566.693 197.212 570.233C206.868 573.773 217.624 568.972 221.237 559.51L263 452.707C266.613 443.245 261.714 432.705 252.058 429.165C242.402 425.625 231.645 430.425 228.033 439.887Z" fill="#5A6AFF"/>
</g>
</svg>
